<?xml version="1.0" encoding="utf-8"?>
<!-- Svg Vector Icons : http://www.onlinewebfonts.com/icon -->
<!DOCTYPE svg PUBLIC "-//W3C//DTD SVG 1.1//EN" "http://www.w3.org/Graphics/SVG/1.1/DTD/svg11.dtd">
<svg version="1.1" xmlns="http://www.w3.org/2000/svg" xmlns:xlink="http://www.w3.org/1999/xlink" x="0px" y="0px" viewBox="0 0 1000 1000" enable-background="new 0 0 1000 1000" xml:space="preserve">
    <g>
        <g transform="translate(0.000000,512.000000) scale(0.100000,-0.100000)">
            <path fill="#FFFFFF" d="M6635.2,5011.7c-49.8-9.6-137.8-107.2-141.7-155.1c-7.7-105.3,38.3-181.9,124.4-214.4c36.4-11.5,493.9-19.1,1330.5-19.1h1275L7161.6,2561.2C5752.6,1150.3,5096,480.3,5086.4,445.8c-34.5-147.4,90-271.8,237.4-237.4c34.5,9.6,704.5,666.2,2115.4,2075.2l2061.9,2061.9V3068.6c0-769.6,7.7-1296.1,19.2-1324.8c32.5-88.1,88.1-126.4,180-126.4c70.8,0,91.9,9.6,134,57.4c26.8,32.5,53.6,86.2,59.3,120.6c5.7,34.5,7.7,771.5,5.7,1640.7l-5.7,1579.4l-1608.1,1.9C7400.9,5019.4,6658.1,5015.6,6635.2,5011.7z"/>
            <path fill="#FFFFFF" d="M380.7,3240.9c-97.6-26.8-231.7-160.8-258.4-256.5c-30.6-107.2-28.7-7378.2,0-7483.5c28.7-99.6,157-227.8,256.5-256.5c105.3-28.7,7376.3-30.6,7483.5,0c114.9,32.5,231.6,162.7,260.4,287.2c15.3,76.6,19.1,901.7,15.3,3170.3l-5.7,3065l-46,49.8c-88.1,91.9-235.5,82.3-302.5-21.1c-32.5-49.8-34.5-204.8-44-3116.7l-9.6-3063.1l-3597.2-5.7c-2647.7-1.9-3603,1.9-3622.1,17.2c-23,19.1-26.8,608.8-23,3624l5.7,3601l3063.1,9.6c2911.9,9.6,3066.9,11.5,3116.7,44c103.4,67,112.9,214.4,21.1,302.5l-49.8,45.9l-3093.7,3.8C1456.6,3260,430.5,3254.3,380.7,3240.9z"/>
        </g>
    </g>
</svg>